G04 #@! TF.GenerationSoftware,KiCad,Pcbnew,7.0.10-7.0.10~ubuntu22.04.1*
G04 #@! TF.CreationDate,2024-03-02T19:34:41+02:00*
G04 #@! TF.ProjectId,UKTC-boy,554b5443-2d62-46f7-992e-6b696361645f,rev?*
G04 #@! TF.SameCoordinates,Original*
G04 #@! TF.FileFunction,Copper,L2,Bot*
G04 #@! TF.FilePolarity,Positive*
%FSLAX46Y46*%
G04 Gerber Fmt 4.6, Leading zero omitted, Abs format (unit mm)*
G04 Created by KiCad (PCBNEW 7.0.10-7.0.10~ubuntu22.04.1) date 2024-03-02 19:34:41*
%MOMM*%
%LPD*%
G01*
G04 APERTURE LIST*
G04 #@! TA.AperFunction,ComponentPad*
%ADD10O,3.000000X2.500000*%
G04 #@! TD*
G04 #@! TA.AperFunction,ComponentPad*
%ADD11C,1.400000*%
G04 #@! TD*
G04 #@! TA.AperFunction,ComponentPad*
%ADD12O,1.400000X1.400000*%
G04 #@! TD*
G04 #@! TA.AperFunction,ComponentPad*
%ADD13C,1.524000*%
G04 #@! TD*
G04 #@! TA.AperFunction,ComponentPad*
%ADD14C,2.200000*%
G04 #@! TD*
G04 #@! TA.AperFunction,ComponentPad*
%ADD15O,2.844800X1.422400*%
G04 #@! TD*
G04 #@! TA.AperFunction,ComponentPad*
%ADD16C,1.530000*%
G04 #@! TD*
G04 #@! TA.AperFunction,ComponentPad*
%ADD17C,5.175000*%
G04 #@! TD*
G04 #@! TA.AperFunction,ViaPad*
%ADD18C,0.800000*%
G04 #@! TD*
G04 #@! TA.AperFunction,Conductor*
%ADD19C,0.250000*%
G04 #@! TD*
G04 APERTURE END LIST*
D10*
X68145000Y-123190000D03*
X80645000Y-123190000D03*
X68145000Y-128190000D03*
X80645000Y-128190000D03*
D11*
X71855000Y-112395000D03*
D12*
X76935000Y-112395000D03*
D11*
X133985000Y-111760000D03*
D12*
X128905000Y-111760000D03*
D10*
X68145000Y-100330000D03*
X80645000Y-100330000D03*
X68145000Y-105330000D03*
X80645000Y-105330000D03*
X125095000Y-123190000D03*
X137595000Y-123190000D03*
X125095000Y-128190000D03*
X137595000Y-128190000D03*
X125095000Y-100330000D03*
X137595000Y-100330000D03*
X125095000Y-105330000D03*
X137595000Y-105330000D03*
D13*
X144857500Y-73660000D03*
X144857500Y-71120000D03*
X144857500Y-68580000D03*
X144857500Y-66040000D03*
X144857500Y-63500000D03*
X144857500Y-60960000D03*
X144857500Y-58420000D03*
X144857500Y-55880000D03*
X144857500Y-53340000D03*
X144857500Y-50800000D03*
X144857500Y-48260000D03*
X144857500Y-45720000D03*
X144857500Y-43180000D03*
X144857500Y-40640000D03*
D14*
X102870000Y-102870000D03*
X102870000Y-97790000D03*
X102870000Y-107950000D03*
D11*
X133985000Y-116205000D03*
D12*
X128905000Y-116205000D03*
D11*
X71855000Y-116205000D03*
D12*
X76935000Y-116205000D03*
D15*
X115316000Y-94996000D03*
X115316000Y-97536000D03*
X115316000Y-128016000D03*
X89916000Y-94996000D03*
X89916000Y-110236000D03*
X89916000Y-128016000D03*
X89916000Y-130556000D03*
X89916000Y-125476000D03*
X89916000Y-117856000D03*
X89916000Y-140716000D03*
X89916000Y-138176000D03*
X89916000Y-135636000D03*
X115316000Y-133096000D03*
X115316000Y-135636000D03*
X115316000Y-138176000D03*
X115316000Y-125476000D03*
X115316000Y-130556000D03*
X115316000Y-122936000D03*
X89916000Y-133096000D03*
X89916000Y-122936000D03*
X89916000Y-120396000D03*
X89916000Y-115316000D03*
X89916000Y-112776000D03*
X89916000Y-107696000D03*
X89916000Y-100076000D03*
X89916000Y-97536000D03*
X115316000Y-115316000D03*
X115316000Y-117856000D03*
X115316000Y-120396000D03*
X115316000Y-110236000D03*
X115316000Y-112776000D03*
X115316000Y-105156000D03*
X115316000Y-107696000D03*
X115316000Y-100076000D03*
X115316000Y-102616000D03*
X89916000Y-105156000D03*
X89916000Y-102616000D03*
X115316000Y-140716000D03*
D16*
X78515000Y-63505000D03*
X78515000Y-50805000D03*
D17*
X102235000Y-63505000D03*
X102235000Y-40005000D03*
D13*
X120650000Y-95250000D03*
X120650000Y-92710000D03*
X120650000Y-90170000D03*
X120650000Y-87630000D03*
X120650000Y-85090000D03*
X120650000Y-82550000D03*
D18*
X118110000Y-111760000D03*
X120015000Y-124460000D03*
X129540000Y-128270000D03*
X97790000Y-83820000D03*
X97880000Y-100965000D03*
X97790000Y-104140000D03*
X97790000Y-89535000D03*
X117475000Y-68580000D03*
X113030000Y-87630000D03*
X133350000Y-62230000D03*
X106680000Y-88900000D03*
X113030000Y-85090000D03*
X104140000Y-92165000D03*
X104140000Y-85090000D03*
X123190000Y-66040000D03*
X110490000Y-109220000D03*
X105410000Y-114300000D03*
X105410000Y-87630000D03*
X129540000Y-63500000D03*
X96520000Y-81280000D03*
D19*
X118110000Y-111760000D02*
X118110000Y-142240000D01*
X118110000Y-142240000D02*
X116205000Y-144145000D01*
X116205000Y-144145000D02*
X82550000Y-144145000D01*
X82550000Y-144145000D02*
X80645000Y-142240000D01*
X80645000Y-142240000D02*
X80645000Y-128190000D01*
X80645000Y-105330000D02*
X80645000Y-117475000D01*
X80645000Y-117475000D02*
X78105000Y-120015000D01*
X78105000Y-120015000D02*
X78105000Y-143510000D01*
X78105000Y-143510000D02*
X80010000Y-145415000D01*
X80010000Y-145415000D02*
X116205000Y-145415000D01*
X116205000Y-145415000D02*
X120015000Y-141605000D01*
X120015000Y-141605000D02*
X120015000Y-124460000D01*
X85090000Y-101600000D02*
X85090000Y-118745000D01*
X80645000Y-100330000D02*
X83820000Y-100330000D01*
X129540000Y-128270000D02*
X129540000Y-127635000D01*
X85090000Y-118745000D02*
X80645000Y-123190000D01*
X83820000Y-100330000D02*
X85090000Y-101600000D01*
X80010000Y-100330000D02*
X80645000Y-100330000D01*
X129540000Y-127635000D02*
X125095000Y-123190000D01*
X97790000Y-83820000D02*
X89916000Y-91694000D01*
X89916000Y-91694000D02*
X89916000Y-94996000D01*
X97790000Y-89535000D02*
X97790000Y-88265000D01*
X97790000Y-101055000D02*
X97790000Y-104140000D01*
X97880000Y-100965000D02*
X97790000Y-101055000D01*
X97790000Y-88265000D02*
X117475000Y-68580000D01*
X142240000Y-58420000D02*
X144857500Y-58420000D01*
X89916000Y-115316000D02*
X95504000Y-115316000D01*
X102870000Y-91440000D02*
X109220000Y-91440000D01*
X95504000Y-115316000D02*
X100330000Y-110490000D01*
X100330000Y-110490000D02*
X100330000Y-93980000D01*
X100330000Y-93980000D02*
X102870000Y-91440000D01*
X109220000Y-91440000D02*
X142240000Y-58420000D01*
X97155000Y-97155000D02*
X97155000Y-92075000D01*
X106680000Y-88900000D02*
X133350000Y-62230000D01*
X96774000Y-97536000D02*
X97155000Y-97155000D01*
X97155000Y-92075000D02*
X100330000Y-88900000D01*
X89916000Y-97536000D02*
X96774000Y-97536000D01*
X100330000Y-88900000D02*
X106680000Y-88900000D01*
X89916000Y-112776000D02*
X95504000Y-112776000D01*
X99060000Y-92710000D02*
X101600000Y-90170000D01*
X101600000Y-90170000D02*
X107950000Y-90170000D01*
X99060000Y-109220000D02*
X99060000Y-92710000D01*
X124460000Y-73660000D02*
X124537500Y-73660000D01*
X95504000Y-112776000D02*
X99060000Y-109220000D01*
X107950000Y-90170000D02*
X124460000Y-73660000D01*
X124537500Y-73660000D02*
X144857500Y-53340000D01*
X108204000Y-133096000D02*
X89916000Y-133096000D01*
X113030000Y-92710000D02*
X111760000Y-93980000D01*
X111760000Y-129540000D02*
X108204000Y-133096000D01*
X111760000Y-93980000D02*
X111760000Y-129540000D01*
X120650000Y-92710000D02*
X113030000Y-92710000D01*
X123190000Y-66040000D02*
X104140000Y-85090000D01*
X109220000Y-97155000D02*
X109220000Y-108712000D01*
X104140000Y-92165000D02*
X104230000Y-92165000D01*
X109220000Y-108712000D02*
X89916000Y-128016000D01*
X104230000Y-92165000D02*
X109220000Y-97155000D01*
X111760000Y-81280000D02*
X129540000Y-63500000D01*
X105410000Y-87630000D02*
X111760000Y-81280000D01*
X105410000Y-114300000D02*
X110490000Y-109220000D01*
X96520000Y-81280000D02*
X86360000Y-91440000D01*
X87376000Y-100076000D02*
X89916000Y-100076000D01*
X86360000Y-99060000D02*
X87376000Y-100076000D01*
X86360000Y-91440000D02*
X86360000Y-99060000D01*
X115570000Y-102870000D02*
X115316000Y-102616000D01*
X124380000Y-105330000D02*
X121920000Y-102870000D01*
X125095000Y-105330000D02*
X124380000Y-105330000D01*
X121920000Y-102870000D02*
X115570000Y-102870000D01*
X119380000Y-110490000D02*
X116586000Y-107696000D01*
X125095000Y-128190000D02*
X119380000Y-122475000D01*
X116586000Y-107696000D02*
X115316000Y-107696000D01*
X119380000Y-122475000D02*
X119380000Y-110490000D01*
M02*
