%TF.GenerationSoftware,KiCad,Pcbnew,7.0.10-7.0.10~ubuntu22.04.1*%
%TF.CreationDate,2024-03-02T18:47:03+02:00*%
%TF.ProjectId,UKTC-boy,554b5443-2d62-46f7-992e-6b696361645f,rev?*%
%TF.SameCoordinates,Original*%
%TF.FileFunction,Legend,Bot*%
%TF.FilePolarity,Positive*%
%FSLAX46Y46*%
G04 Gerber Fmt 4.6, Leading zero omitted, Abs format (unit mm)*
G04 Created by KiCad (PCBNEW 7.0.10-7.0.10~ubuntu22.04.1) date 2024-03-02 18:47:03*
%MOMM*%
%LPD*%
G01*
G04 APERTURE LIST*
%ADD10C,0.150000*%
%ADD11C,0.254000*%
%ADD12C,0.100000*%
G04 APERTURE END LIST*
D10*
X119634000Y-81280000D02*
X139446000Y-81280000D01*
X139446000Y-98044000D01*
X119634000Y-98044000D01*
X119634000Y-81280000D01*
X139535615Y-83395783D02*
X142597554Y-83395783D01*
X142597554Y-95382945D01*
X139535615Y-95382945D01*
X139535615Y-83395783D01*
X142727849Y-84405572D02*
X148591135Y-84405572D01*
X148591135Y-94503453D01*
X142727849Y-94503453D01*
X142727849Y-84405572D01*
X88900000Y-91186000D02*
X116332000Y-91186000D01*
X116332000Y-143002000D01*
X88900000Y-143002000D01*
X88900000Y-91186000D01*
X108449333Y-133989866D02*
X108449333Y-132589866D01*
X108449333Y-132589866D02*
X107649333Y-133989866D01*
X107649333Y-133989866D02*
X107649333Y-132589866D01*
X106782666Y-133989866D02*
X106916000Y-133923200D01*
X106916000Y-133923200D02*
X106982666Y-133856533D01*
X106982666Y-133856533D02*
X107049333Y-133723200D01*
X107049333Y-133723200D02*
X107049333Y-133323200D01*
X107049333Y-133323200D02*
X106982666Y-133189866D01*
X106982666Y-133189866D02*
X106916000Y-133123200D01*
X106916000Y-133123200D02*
X106782666Y-133056533D01*
X106782666Y-133056533D02*
X106582666Y-133056533D01*
X106582666Y-133056533D02*
X106449333Y-133123200D01*
X106449333Y-133123200D02*
X106382666Y-133189866D01*
X106382666Y-133189866D02*
X106316000Y-133323200D01*
X106316000Y-133323200D02*
X106316000Y-133723200D01*
X106316000Y-133723200D02*
X106382666Y-133856533D01*
X106382666Y-133856533D02*
X106449333Y-133923200D01*
X106449333Y-133923200D02*
X106582666Y-133989866D01*
X106582666Y-133989866D02*
X106782666Y-133989866D01*
X105115999Y-133989866D02*
X105115999Y-132589866D01*
X105115999Y-133923200D02*
X105249333Y-133989866D01*
X105249333Y-133989866D02*
X105515999Y-133989866D01*
X105515999Y-133989866D02*
X105649333Y-133923200D01*
X105649333Y-133923200D02*
X105715999Y-133856533D01*
X105715999Y-133856533D02*
X105782666Y-133723200D01*
X105782666Y-133723200D02*
X105782666Y-133323200D01*
X105782666Y-133323200D02*
X105715999Y-133189866D01*
X105715999Y-133189866D02*
X105649333Y-133123200D01*
X105649333Y-133123200D02*
X105515999Y-133056533D01*
X105515999Y-133056533D02*
X105249333Y-133056533D01*
X105249333Y-133056533D02*
X105115999Y-133123200D01*
X103915999Y-133923200D02*
X104049332Y-133989866D01*
X104049332Y-133989866D02*
X104315999Y-133989866D01*
X104315999Y-133989866D02*
X104449332Y-133923200D01*
X104449332Y-133923200D02*
X104515999Y-133789866D01*
X104515999Y-133789866D02*
X104515999Y-133256533D01*
X104515999Y-133256533D02*
X104449332Y-133123200D01*
X104449332Y-133123200D02*
X104315999Y-133056533D01*
X104315999Y-133056533D02*
X104049332Y-133056533D01*
X104049332Y-133056533D02*
X103915999Y-133123200D01*
X103915999Y-133123200D02*
X103849332Y-133256533D01*
X103849332Y-133256533D02*
X103849332Y-133389866D01*
X103849332Y-133389866D02*
X104515999Y-133523200D01*
X103249332Y-133989866D02*
X103249332Y-132589866D01*
X103249332Y-132589866D02*
X102782666Y-133589866D01*
X102782666Y-133589866D02*
X102315999Y-132589866D01*
X102315999Y-132589866D02*
X102315999Y-133989866D01*
X100849332Y-133856533D02*
X100915999Y-133923200D01*
X100915999Y-133923200D02*
X101115999Y-133989866D01*
X101115999Y-133989866D02*
X101249332Y-133989866D01*
X101249332Y-133989866D02*
X101449332Y-133923200D01*
X101449332Y-133923200D02*
X101582666Y-133789866D01*
X101582666Y-133789866D02*
X101649332Y-133656533D01*
X101649332Y-133656533D02*
X101715999Y-133389866D01*
X101715999Y-133389866D02*
X101715999Y-133189866D01*
X101715999Y-133189866D02*
X101649332Y-132923200D01*
X101649332Y-132923200D02*
X101582666Y-132789866D01*
X101582666Y-132789866D02*
X101449332Y-132656533D01*
X101449332Y-132656533D02*
X101249332Y-132589866D01*
X101249332Y-132589866D02*
X101115999Y-132589866D01*
X101115999Y-132589866D02*
X100915999Y-132656533D01*
X100915999Y-132656533D02*
X100849332Y-132723200D01*
X100249332Y-132589866D02*
X100249332Y-133723200D01*
X100249332Y-133723200D02*
X100182666Y-133856533D01*
X100182666Y-133856533D02*
X100115999Y-133923200D01*
X100115999Y-133923200D02*
X99982666Y-133989866D01*
X99982666Y-133989866D02*
X99715999Y-133989866D01*
X99715999Y-133989866D02*
X99582666Y-133923200D01*
X99582666Y-133923200D02*
X99515999Y-133856533D01*
X99515999Y-133856533D02*
X99449332Y-133723200D01*
X99449332Y-133723200D02*
X99449332Y-132589866D01*
X98915999Y-132589866D02*
X98049332Y-132589866D01*
X98049332Y-132589866D02*
X98515999Y-133123200D01*
X98515999Y-133123200D02*
X98315999Y-133123200D01*
X98315999Y-133123200D02*
X98182665Y-133189866D01*
X98182665Y-133189866D02*
X98115999Y-133256533D01*
X98115999Y-133256533D02*
X98049332Y-133389866D01*
X98049332Y-133389866D02*
X98049332Y-133723200D01*
X98049332Y-133723200D02*
X98115999Y-133856533D01*
X98115999Y-133856533D02*
X98182665Y-133923200D01*
X98182665Y-133923200D02*
X98315999Y-133989866D01*
X98315999Y-133989866D02*
X98715999Y-133989866D01*
X98715999Y-133989866D02*
X98849332Y-133923200D01*
X98849332Y-133923200D02*
X98915999Y-133856533D01*
X97515999Y-132723200D02*
X97449332Y-132656533D01*
X97449332Y-132656533D02*
X97315999Y-132589866D01*
X97315999Y-132589866D02*
X96982666Y-132589866D01*
X96982666Y-132589866D02*
X96849332Y-132656533D01*
X96849332Y-132656533D02*
X96782666Y-132723200D01*
X96782666Y-132723200D02*
X96715999Y-132856533D01*
X96715999Y-132856533D02*
X96715999Y-132989866D01*
X96715999Y-132989866D02*
X96782666Y-133189866D01*
X96782666Y-133189866D02*
X97582666Y-133989866D01*
X97582666Y-133989866D02*
X96715999Y-133989866D01*
D11*
X107078094Y-51664080D02*
X106896666Y-51724556D01*
X106896666Y-51724556D02*
X106836189Y-51785032D01*
X106836189Y-51785032D02*
X106775713Y-51905984D01*
X106775713Y-51905984D02*
X106775713Y-52087413D01*
X106775713Y-52087413D02*
X106836189Y-52208365D01*
X106836189Y-52208365D02*
X106896666Y-52268842D01*
X106896666Y-52268842D02*
X107017618Y-52329318D01*
X107017618Y-52329318D02*
X107501428Y-52329318D01*
X107501428Y-52329318D02*
X107501428Y-51059318D01*
X107501428Y-51059318D02*
X107078094Y-51059318D01*
X107078094Y-51059318D02*
X106957142Y-51119794D01*
X106957142Y-51119794D02*
X106896666Y-51180270D01*
X106896666Y-51180270D02*
X106836189Y-51301222D01*
X106836189Y-51301222D02*
X106836189Y-51422175D01*
X106836189Y-51422175D02*
X106896666Y-51543127D01*
X106896666Y-51543127D02*
X106957142Y-51603603D01*
X106957142Y-51603603D02*
X107078094Y-51664080D01*
X107078094Y-51664080D02*
X107501428Y-51664080D01*
X105687142Y-52329318D02*
X105687142Y-51664080D01*
X105687142Y-51664080D02*
X105747618Y-51543127D01*
X105747618Y-51543127D02*
X105868570Y-51482651D01*
X105868570Y-51482651D02*
X106110475Y-51482651D01*
X106110475Y-51482651D02*
X106231428Y-51543127D01*
X105687142Y-52268842D02*
X105808094Y-52329318D01*
X105808094Y-52329318D02*
X106110475Y-52329318D01*
X106110475Y-52329318D02*
X106231428Y-52268842D01*
X106231428Y-52268842D02*
X106291904Y-52147889D01*
X106291904Y-52147889D02*
X106291904Y-52026937D01*
X106291904Y-52026937D02*
X106231428Y-51905984D01*
X106231428Y-51905984D02*
X106110475Y-51845508D01*
X106110475Y-51845508D02*
X105808094Y-51845508D01*
X105808094Y-51845508D02*
X105687142Y-51785032D01*
X105263808Y-51482651D02*
X104779999Y-51482651D01*
X105082380Y-51059318D02*
X105082380Y-52147889D01*
X105082380Y-52147889D02*
X105021903Y-52268842D01*
X105021903Y-52268842D02*
X104900951Y-52329318D01*
X104900951Y-52329318D02*
X104779999Y-52329318D01*
X104538094Y-51482651D02*
X104054285Y-51482651D01*
X104356666Y-51059318D02*
X104356666Y-52147889D01*
X104356666Y-52147889D02*
X104296189Y-52268842D01*
X104296189Y-52268842D02*
X104175237Y-52329318D01*
X104175237Y-52329318D02*
X104054285Y-52329318D01*
X103147142Y-52268842D02*
X103268094Y-52329318D01*
X103268094Y-52329318D02*
X103509999Y-52329318D01*
X103509999Y-52329318D02*
X103630952Y-52268842D01*
X103630952Y-52268842D02*
X103691428Y-52147889D01*
X103691428Y-52147889D02*
X103691428Y-51664080D01*
X103691428Y-51664080D02*
X103630952Y-51543127D01*
X103630952Y-51543127D02*
X103509999Y-51482651D01*
X103509999Y-51482651D02*
X103268094Y-51482651D01*
X103268094Y-51482651D02*
X103147142Y-51543127D01*
X103147142Y-51543127D02*
X103086666Y-51664080D01*
X103086666Y-51664080D02*
X103086666Y-51785032D01*
X103086666Y-51785032D02*
X103691428Y-51905984D01*
X102542381Y-52329318D02*
X102542381Y-51482651D01*
X102542381Y-51724556D02*
X102481904Y-51603603D01*
X102481904Y-51603603D02*
X102421428Y-51543127D01*
X102421428Y-51543127D02*
X102300476Y-51482651D01*
X102300476Y-51482651D02*
X102179523Y-51482651D01*
X101877143Y-51482651D02*
X101574762Y-52329318D01*
X101272381Y-51482651D02*
X101574762Y-52329318D01*
X101574762Y-52329318D02*
X101695714Y-52631699D01*
X101695714Y-52631699D02*
X101756191Y-52692175D01*
X101756191Y-52692175D02*
X101877143Y-52752651D01*
X99397619Y-51664080D02*
X99216191Y-51724556D01*
X99216191Y-51724556D02*
X99155714Y-51785032D01*
X99155714Y-51785032D02*
X99095238Y-51905984D01*
X99095238Y-51905984D02*
X99095238Y-52087413D01*
X99095238Y-52087413D02*
X99155714Y-52208365D01*
X99155714Y-52208365D02*
X99216191Y-52268842D01*
X99216191Y-52268842D02*
X99337143Y-52329318D01*
X99337143Y-52329318D02*
X99820953Y-52329318D01*
X99820953Y-52329318D02*
X99820953Y-51059318D01*
X99820953Y-51059318D02*
X99397619Y-51059318D01*
X99397619Y-51059318D02*
X99276667Y-51119794D01*
X99276667Y-51119794D02*
X99216191Y-51180270D01*
X99216191Y-51180270D02*
X99155714Y-51301222D01*
X99155714Y-51301222D02*
X99155714Y-51422175D01*
X99155714Y-51422175D02*
X99216191Y-51543127D01*
X99216191Y-51543127D02*
X99276667Y-51603603D01*
X99276667Y-51603603D02*
X99397619Y-51664080D01*
X99397619Y-51664080D02*
X99820953Y-51664080D01*
X98369524Y-52329318D02*
X98490476Y-52268842D01*
X98490476Y-52268842D02*
X98550953Y-52208365D01*
X98550953Y-52208365D02*
X98611429Y-52087413D01*
X98611429Y-52087413D02*
X98611429Y-51724556D01*
X98611429Y-51724556D02*
X98550953Y-51603603D01*
X98550953Y-51603603D02*
X98490476Y-51543127D01*
X98490476Y-51543127D02*
X98369524Y-51482651D01*
X98369524Y-51482651D02*
X98188095Y-51482651D01*
X98188095Y-51482651D02*
X98067143Y-51543127D01*
X98067143Y-51543127D02*
X98006667Y-51603603D01*
X98006667Y-51603603D02*
X97946191Y-51724556D01*
X97946191Y-51724556D02*
X97946191Y-52087413D01*
X97946191Y-52087413D02*
X98006667Y-52208365D01*
X98006667Y-52208365D02*
X98067143Y-52268842D01*
X98067143Y-52268842D02*
X98188095Y-52329318D01*
X98188095Y-52329318D02*
X98369524Y-52329318D01*
X97522857Y-52329318D02*
X96857619Y-51482651D01*
X97522857Y-51482651D02*
X96857619Y-52329318D01*
D12*
X128325905Y-89966580D02*
X128325905Y-90966580D01*
X128325905Y-90966580D02*
X128659238Y-90252295D01*
X128659238Y-90252295D02*
X128992571Y-90966580D01*
X128992571Y-90966580D02*
X128992571Y-89966580D01*
X129468762Y-89966580D02*
X129468762Y-90633247D01*
X129468762Y-90966580D02*
X129421143Y-90918961D01*
X129421143Y-90918961D02*
X129468762Y-90871342D01*
X129468762Y-90871342D02*
X129516381Y-90918961D01*
X129516381Y-90918961D02*
X129468762Y-90966580D01*
X129468762Y-90966580D02*
X129468762Y-90871342D01*
X130373523Y-90014200D02*
X130278285Y-89966580D01*
X130278285Y-89966580D02*
X130087809Y-89966580D01*
X130087809Y-89966580D02*
X129992571Y-90014200D01*
X129992571Y-90014200D02*
X129944952Y-90061819D01*
X129944952Y-90061819D02*
X129897333Y-90157057D01*
X129897333Y-90157057D02*
X129897333Y-90442771D01*
X129897333Y-90442771D02*
X129944952Y-90538009D01*
X129944952Y-90538009D02*
X129992571Y-90585628D01*
X129992571Y-90585628D02*
X130087809Y-90633247D01*
X130087809Y-90633247D02*
X130278285Y-90633247D01*
X130278285Y-90633247D02*
X130373523Y-90585628D01*
X130802095Y-89966580D02*
X130802095Y-90633247D01*
X130802095Y-90442771D02*
X130849714Y-90538009D01*
X130849714Y-90538009D02*
X130897333Y-90585628D01*
X130897333Y-90585628D02*
X130992571Y-90633247D01*
X130992571Y-90633247D02*
X131087809Y-90633247D01*
X131564000Y-89966580D02*
X131468762Y-90014200D01*
X131468762Y-90014200D02*
X131421143Y-90061819D01*
X131421143Y-90061819D02*
X131373524Y-90157057D01*
X131373524Y-90157057D02*
X131373524Y-90442771D01*
X131373524Y-90442771D02*
X131421143Y-90538009D01*
X131421143Y-90538009D02*
X131468762Y-90585628D01*
X131468762Y-90585628D02*
X131564000Y-90633247D01*
X131564000Y-90633247D02*
X131706857Y-90633247D01*
X131706857Y-90633247D02*
X131802095Y-90585628D01*
X131802095Y-90585628D02*
X131849714Y-90538009D01*
X131849714Y-90538009D02*
X131897333Y-90442771D01*
X131897333Y-90442771D02*
X131897333Y-90157057D01*
X131897333Y-90157057D02*
X131849714Y-90061819D01*
X131849714Y-90061819D02*
X131802095Y-90014200D01*
X131802095Y-90014200D02*
X131706857Y-89966580D01*
X131706857Y-89966580D02*
X131564000Y-89966580D01*
X132278286Y-90014200D02*
X132421143Y-89966580D01*
X132421143Y-89966580D02*
X132659238Y-89966580D01*
X132659238Y-89966580D02*
X132754476Y-90014200D01*
X132754476Y-90014200D02*
X132802095Y-90061819D01*
X132802095Y-90061819D02*
X132849714Y-90157057D01*
X132849714Y-90157057D02*
X132849714Y-90252295D01*
X132849714Y-90252295D02*
X132802095Y-90347533D01*
X132802095Y-90347533D02*
X132754476Y-90395152D01*
X132754476Y-90395152D02*
X132659238Y-90442771D01*
X132659238Y-90442771D02*
X132468762Y-90490390D01*
X132468762Y-90490390D02*
X132373524Y-90538009D01*
X132373524Y-90538009D02*
X132325905Y-90585628D01*
X132325905Y-90585628D02*
X132278286Y-90680866D01*
X132278286Y-90680866D02*
X132278286Y-90776104D01*
X132278286Y-90776104D02*
X132325905Y-90871342D01*
X132325905Y-90871342D02*
X132373524Y-90918961D01*
X132373524Y-90918961D02*
X132468762Y-90966580D01*
X132468762Y-90966580D02*
X132706857Y-90966580D01*
X132706857Y-90966580D02*
X132849714Y-90918961D01*
X133278286Y-89966580D02*
X133278286Y-90966580D01*
X133278286Y-90966580D02*
X133516381Y-90966580D01*
X133516381Y-90966580D02*
X133659238Y-90918961D01*
X133659238Y-90918961D02*
X133754476Y-90823723D01*
X133754476Y-90823723D02*
X133802095Y-90728485D01*
X133802095Y-90728485D02*
X133849714Y-90538009D01*
X133849714Y-90538009D02*
X133849714Y-90395152D01*
X133849714Y-90395152D02*
X133802095Y-90204676D01*
X133802095Y-90204676D02*
X133754476Y-90109438D01*
X133754476Y-90109438D02*
X133659238Y-90014200D01*
X133659238Y-90014200D02*
X133516381Y-89966580D01*
X133516381Y-89966580D02*
X133278286Y-89966580D01*
%TO.C,Battery Box*%
X128555000Y-70500000D02*
X128555000Y-33010000D01*
X128555000Y-33010000D02*
X75925000Y-33010000D01*
X75925000Y-70500000D02*
X128555000Y-70500000D01*
X75925000Y-33010000D02*
X75925000Y-70500000D01*
%TD*%
M02*
