%TF.GenerationSoftware,KiCad,Pcbnew,7.0.10-7.0.10~ubuntu22.04.1*%
%TF.CreationDate,2024-03-02T18:47:03+02:00*%
%TF.ProjectId,UKTC-boy,554b5443-2d62-46f7-992e-6b696361645f,rev?*%
%TF.SameCoordinates,Original*%
%TF.FileFunction,Soldermask,Bot*%
%TF.FilePolarity,Negative*%
%FSLAX46Y46*%
G04 Gerber Fmt 4.6, Leading zero omitted, Abs format (unit mm)*
G04 Created by KiCad (PCBNEW 7.0.10-7.0.10~ubuntu22.04.1) date 2024-03-02 18:47:03*
%MOMM*%
%LPD*%
G01*
G04 APERTURE LIST*
%ADD10O,3.000000X2.500000*%
%ADD11C,1.400000*%
%ADD12O,1.400000X1.400000*%
%ADD13C,1.524000*%
%ADD14C,2.200000*%
%ADD15O,3.048800X1.626400*%
%ADD16C,1.530000*%
%ADD17C,5.175000*%
G04 APERTURE END LIST*
D10*
%TO.C,SW3*%
X68145000Y-123190000D03*
X80645000Y-123190000D03*
X68145000Y-128190000D03*
X80645000Y-128190000D03*
%TD*%
D11*
%TO.C,R1*%
X71855000Y-112395000D03*
D12*
X76935000Y-112395000D03*
%TD*%
D11*
%TO.C,R2*%
X133985000Y-111760000D03*
D12*
X128905000Y-111760000D03*
%TD*%
D10*
%TO.C,SW1*%
X68145000Y-100330000D03*
X80645000Y-100330000D03*
X68145000Y-105330000D03*
X80645000Y-105330000D03*
%TD*%
%TO.C,SW4*%
X125095000Y-123190000D03*
X137595000Y-123190000D03*
X125095000Y-128190000D03*
X137595000Y-128190000D03*
%TD*%
%TO.C,SW2*%
X125095000Y-100330000D03*
X137595000Y-100330000D03*
X125095000Y-105330000D03*
X137595000Y-105330000D03*
%TD*%
D13*
%TO.C,ILI9341 TFT LCD 3.2*%
X144857500Y-73660000D03*
X144857500Y-71120000D03*
X144857500Y-68580000D03*
X144857500Y-66040000D03*
X144857500Y-63500000D03*
X144857500Y-60960000D03*
X144857500Y-58420000D03*
X144857500Y-55880000D03*
X144857500Y-53340000D03*
X144857500Y-50800000D03*
X144857500Y-48260000D03*
X144857500Y-45720000D03*
X144857500Y-43180000D03*
X144857500Y-40640000D03*
%TD*%
D14*
%TO.C,SW_1P2T1*%
X102870000Y-102870000D03*
X102870000Y-97790000D03*
X102870000Y-107950000D03*
%TD*%
D11*
%TO.C,R4*%
X133985000Y-116205000D03*
D12*
X128905000Y-116205000D03*
%TD*%
D11*
%TO.C,R3*%
X71855000Y-116205000D03*
D12*
X76935000Y-116205000D03*
%TD*%
D15*
%TO.C,NodeMCU32*%
X115316000Y-94996000D03*
X115316000Y-97536000D03*
X115316000Y-128016000D03*
X89916000Y-94996000D03*
X89916000Y-110236000D03*
X89916000Y-128016000D03*
X89916000Y-130556000D03*
X89916000Y-125476000D03*
X89916000Y-117856000D03*
X89916000Y-140716000D03*
X89916000Y-138176000D03*
X89916000Y-135636000D03*
X115316000Y-133096000D03*
X115316000Y-135636000D03*
X115316000Y-138176000D03*
X115316000Y-125476000D03*
X115316000Y-130556000D03*
X115316000Y-122936000D03*
X89916000Y-133096000D03*
X89916000Y-122936000D03*
X89916000Y-120396000D03*
X89916000Y-115316000D03*
X89916000Y-112776000D03*
X89916000Y-107696000D03*
X89916000Y-100076000D03*
X89916000Y-97536000D03*
X115316000Y-115316000D03*
X115316000Y-117856000D03*
X115316000Y-120396000D03*
X115316000Y-110236000D03*
X115316000Y-112776000D03*
X115316000Y-105156000D03*
X115316000Y-107696000D03*
X115316000Y-100076000D03*
X115316000Y-102616000D03*
X89916000Y-105156000D03*
X89916000Y-102616000D03*
X115316000Y-140716000D03*
%TD*%
D16*
%TO.C,Battery Box*%
X78515000Y-63505000D03*
X78515000Y-50805000D03*
D17*
X102235000Y-63505000D03*
X102235000Y-40005000D03*
%TD*%
D13*
%TO.C,MicroSD*%
X120650000Y-95250000D03*
X120650000Y-92710000D03*
X120650000Y-90170000D03*
X120650000Y-87630000D03*
X120650000Y-85090000D03*
X120650000Y-82550000D03*
%TD*%
M02*
