M48
; DRILL file {KiCad 7.0.10-7.0.10~ubuntu22.04.1} date  2.03.2024 (сб) 19:35:41
; FORMAT={-:-/ absolute / metric / decimal}
; #@! TF.CreationDate,2024-03-02T19:35:41+02:00
; #@! TF.GenerationSoftware,Kicad,Pcbnew,7.0.10-7.0.10~ubuntu22.04.1
; #@! TF.FileFunction,Plated,1,2,PTH
FMAT,2
METRIC
; #@! TA.AperFunction,Plated,PTH,ViaDrill
T1C0.400
; #@! TA.AperFunction,Plated,PTH,ComponentDrill
T2C0.700
; #@! TA.AperFunction,Plated,PTH,ComponentDrill
T3C0.762
; #@! TA.AperFunction,Plated,PTH,ComponentDrill
T4C0.900
; #@! TA.AperFunction,Plated,PTH,ComponentDrill
T5C1.020
; #@! TA.AperFunction,Plated,PTH,ComponentDrill
T6C1.200
; #@! TA.AperFunction,Plated,PTH,ComponentDrill
T7C1.300
; #@! TA.AperFunction,Plated,PTH,ComponentDrill
T8C3.450
%
G90
G05
T1
X96.52Y-81.28
X97.79Y-83.82
X97.79Y-89.535
X97.79Y-104.14
X97.88Y-100.965
X104.14Y-85.09
X104.14Y-92.165
X105.41Y-87.63
X105.41Y-114.3
X106.68Y-88.9
X110.49Y-109.22
X113.03Y-85.09
X113.03Y-87.63
X117.475Y-68.58
X118.11Y-111.76
X120.015Y-124.46
X123.19Y-66.04
X129.54Y-63.5
X129.54Y-128.27
X133.35Y-62.23
T2
X71.855Y-112.395
X71.855Y-116.205
X76.935Y-112.395
X76.935Y-116.205
X128.905Y-111.76
X128.905Y-116.205
X133.985Y-111.76
X133.985Y-116.205
T3
X120.65Y-82.55
X120.65Y-85.09
X120.65Y-87.63
X120.65Y-90.17
X120.65Y-92.71
X120.65Y-95.25
X144.857Y-40.64
X144.857Y-43.18
X144.857Y-45.72
X144.857Y-48.26
X144.857Y-50.8
X144.857Y-53.34
X144.857Y-55.88
X144.857Y-58.42
X144.857Y-60.96
X144.857Y-63.5
X144.857Y-66.04
X144.857Y-68.58
X144.857Y-71.12
X144.857Y-73.66
T4
X89.916Y-94.996
X89.916Y-97.536
X89.916Y-100.076
X89.916Y-102.616
X89.916Y-105.156
X89.916Y-107.696
X89.916Y-110.236
X89.916Y-112.776
X89.916Y-115.316
X89.916Y-117.856
X89.916Y-120.396
X89.916Y-122.936
X89.916Y-125.476
X89.916Y-128.016
X89.916Y-130.556
X89.916Y-133.096
X89.916Y-135.636
X89.916Y-138.176
X89.916Y-140.716
X115.316Y-94.996
X115.316Y-97.536
X115.316Y-100.076
X115.316Y-102.616
X115.316Y-105.156
X115.316Y-107.696
X115.316Y-110.236
X115.316Y-112.776
X115.316Y-115.316
X115.316Y-117.856
X115.316Y-120.396
X115.316Y-122.936
X115.316Y-125.476
X115.316Y-128.016
X115.316Y-130.556
X115.316Y-133.096
X115.316Y-135.636
X115.316Y-138.176
X115.316Y-140.716
T5
X78.515Y-50.805
X78.515Y-63.505
T6
X68.145Y-100.33
X68.145Y-105.33
X68.145Y-123.19
X68.145Y-128.19
X80.645Y-100.33
X80.645Y-105.33
X80.645Y-123.19
X80.645Y-128.19
X125.095Y-100.33
X125.095Y-105.33
X125.095Y-123.19
X125.095Y-128.19
X137.595Y-100.33
X137.595Y-105.33
X137.595Y-123.19
X137.595Y-128.19
T7
X102.87Y-97.79
X102.87Y-102.87
X102.87Y-107.95
T8
X102.235Y-40.005
X102.235Y-63.505
M30
