%TF.GenerationSoftware,KiCad,Pcbnew,7.0.10-7.0.10~ubuntu22.04.1*%
%TF.CreationDate,2024-03-02T19:36:36+02:00*%
%TF.ProjectId,UKTC-boy,554b5443-2d62-46f7-992e-6b696361645f,rev?*%
%TF.SameCoordinates,Original*%
%TF.FileFunction,Drillmap*%
%TF.FilePolarity,Positive*%
%FSLAX45Y45*%
G04 Gerber Fmt 4.5, Leading zero omitted, Abs format (unit mm)*
G04 Created by KiCad (PCBNEW 7.0.10-7.0.10~ubuntu22.04.1) date 2024-03-02 19:36:36*
%MOMM*%
%LPD*%
G01*
G04 APERTURE LIST*
%ADD10C,0.050000*%
%ADD11C,0.200000*%
G04 APERTURE END LIST*
D10*
X5837693Y-14577536D02*
X14737693Y-14577536D01*
X14737693Y-3077536D01*
X5837693Y-3077536D01*
X5837693Y-14577536D01*
D11*
X6095970Y-14891520D02*
X6095970Y-14691520D01*
X6095970Y-14691520D02*
X6143589Y-14691520D01*
X6143589Y-14691520D02*
X6172160Y-14701044D01*
X6172160Y-14701044D02*
X6191208Y-14720091D01*
X6191208Y-14720091D02*
X6200732Y-14739139D01*
X6200732Y-14739139D02*
X6210256Y-14777234D01*
X6210256Y-14777234D02*
X6210256Y-14805806D01*
X6210256Y-14805806D02*
X6200732Y-14843901D01*
X6200732Y-14843901D02*
X6191208Y-14862949D01*
X6191208Y-14862949D02*
X6172160Y-14881996D01*
X6172160Y-14881996D02*
X6143589Y-14891520D01*
X6143589Y-14891520D02*
X6095970Y-14891520D01*
X6295970Y-14891520D02*
X6295970Y-14758187D01*
X6295970Y-14796282D02*
X6305494Y-14777234D01*
X6305494Y-14777234D02*
X6315017Y-14767710D01*
X6315017Y-14767710D02*
X6334065Y-14758187D01*
X6334065Y-14758187D02*
X6353113Y-14758187D01*
X6419779Y-14891520D02*
X6419779Y-14758187D01*
X6419779Y-14691520D02*
X6410256Y-14701044D01*
X6410256Y-14701044D02*
X6419779Y-14710568D01*
X6419779Y-14710568D02*
X6429303Y-14701044D01*
X6429303Y-14701044D02*
X6419779Y-14691520D01*
X6419779Y-14691520D02*
X6419779Y-14710568D01*
X6543589Y-14891520D02*
X6524541Y-14881996D01*
X6524541Y-14881996D02*
X6515017Y-14862949D01*
X6515017Y-14862949D02*
X6515017Y-14691520D01*
X6648351Y-14891520D02*
X6629303Y-14881996D01*
X6629303Y-14881996D02*
X6619779Y-14862949D01*
X6619779Y-14862949D02*
X6619779Y-14691520D01*
X6876922Y-14891520D02*
X6876922Y-14691520D01*
X6876922Y-14691520D02*
X6943589Y-14834377D01*
X6943589Y-14834377D02*
X7010256Y-14691520D01*
X7010256Y-14691520D02*
X7010256Y-14891520D01*
X7191208Y-14891520D02*
X7191208Y-14786758D01*
X7191208Y-14786758D02*
X7181684Y-14767710D01*
X7181684Y-14767710D02*
X7162637Y-14758187D01*
X7162637Y-14758187D02*
X7124541Y-14758187D01*
X7124541Y-14758187D02*
X7105494Y-14767710D01*
X7191208Y-14881996D02*
X7172160Y-14891520D01*
X7172160Y-14891520D02*
X7124541Y-14891520D01*
X7124541Y-14891520D02*
X7105494Y-14881996D01*
X7105494Y-14881996D02*
X7095970Y-14862949D01*
X7095970Y-14862949D02*
X7095970Y-14843901D01*
X7095970Y-14843901D02*
X7105494Y-14824853D01*
X7105494Y-14824853D02*
X7124541Y-14815330D01*
X7124541Y-14815330D02*
X7172160Y-14815330D01*
X7172160Y-14815330D02*
X7191208Y-14805806D01*
X7286446Y-14758187D02*
X7286446Y-14958187D01*
X7286446Y-14767710D02*
X7305494Y-14758187D01*
X7305494Y-14758187D02*
X7343589Y-14758187D01*
X7343589Y-14758187D02*
X7362637Y-14767710D01*
X7362637Y-14767710D02*
X7372160Y-14777234D01*
X7372160Y-14777234D02*
X7381684Y-14796282D01*
X7381684Y-14796282D02*
X7381684Y-14853425D01*
X7381684Y-14853425D02*
X7372160Y-14872472D01*
X7372160Y-14872472D02*
X7362637Y-14881996D01*
X7362637Y-14881996D02*
X7343589Y-14891520D01*
X7343589Y-14891520D02*
X7305494Y-14891520D01*
X7305494Y-14891520D02*
X7286446Y-14881996D01*
X7467398Y-14872472D02*
X7476922Y-14881996D01*
X7476922Y-14881996D02*
X7467398Y-14891520D01*
X7467398Y-14891520D02*
X7457875Y-14881996D01*
X7457875Y-14881996D02*
X7467398Y-14872472D01*
X7467398Y-14872472D02*
X7467398Y-14891520D01*
X7467398Y-14767710D02*
X7476922Y-14777234D01*
X7476922Y-14777234D02*
X7467398Y-14786758D01*
X7467398Y-14786758D02*
X7457875Y-14777234D01*
X7457875Y-14777234D02*
X7467398Y-14767710D01*
X7467398Y-14767710D02*
X7467398Y-14786758D01*
M02*
