%TF.GenerationSoftware,KiCad,Pcbnew,7.0.10-7.0.10~ubuntu22.04.1*%
%TF.CreationDate,2024-03-02T18:47:02+02:00*%
%TF.ProjectId,UKTC-boy,554b5443-2d62-46f7-992e-6b696361645f,rev?*%
%TF.SameCoordinates,Original*%
%TF.FileFunction,Copper,L2,Bot*%
%TF.FilePolarity,Positive*%
%FSLAX46Y46*%
G04 Gerber Fmt 4.6, Leading zero omitted, Abs format (unit mm)*
G04 Created by KiCad (PCBNEW 7.0.10-7.0.10~ubuntu22.04.1) date 2024-03-02 18:47:02*
%MOMM*%
%LPD*%
G01*
G04 APERTURE LIST*
%TA.AperFunction,ComponentPad*%
%ADD10O,3.000000X2.500000*%
%TD*%
%TA.AperFunction,ComponentPad*%
%ADD11C,1.400000*%
%TD*%
%TA.AperFunction,ComponentPad*%
%ADD12O,1.400000X1.400000*%
%TD*%
%TA.AperFunction,ComponentPad*%
%ADD13C,1.524000*%
%TD*%
%TA.AperFunction,ComponentPad*%
%ADD14C,2.200000*%
%TD*%
%TA.AperFunction,ComponentPad*%
%ADD15O,2.844800X1.422400*%
%TD*%
%TA.AperFunction,ComponentPad*%
%ADD16C,1.530000*%
%TD*%
%TA.AperFunction,ComponentPad*%
%ADD17C,5.175000*%
%TD*%
%TA.AperFunction,ViaPad*%
%ADD18C,0.800000*%
%TD*%
%TA.AperFunction,Conductor*%
%ADD19C,0.250000*%
%TD*%
G04 APERTURE END LIST*
D10*
%TO.P,SW3,1,1*%
%TO.N,Net-(U1-3.3V)*%
X68145000Y-123190000D03*
X80645000Y-123190000D03*
%TO.P,SW3,2,2*%
%TO.N,Net-(R3-Pad1)*%
X68145000Y-128190000D03*
X80645000Y-128190000D03*
%TD*%
D11*
%TO.P,R1,1*%
%TO.N,Net-(R1-Pad1)*%
X71855000Y-112395000D03*
D12*
%TO.P,R1,2*%
%TO.N,GND*%
X76935000Y-112395000D03*
%TD*%
D11*
%TO.P,R2,1*%
%TO.N,Net-(R2-Pad1)*%
X133985000Y-111760000D03*
D12*
%TO.P,R2,2*%
%TO.N,Net-(U2--)*%
X128905000Y-111760000D03*
%TD*%
D10*
%TO.P,SW1,1,1*%
%TO.N,Net-(U1-3.3V)*%
X68145000Y-100330000D03*
X80645000Y-100330000D03*
%TO.P,SW1,2,2*%
%TO.N,Net-(R1-Pad1)*%
X68145000Y-105330000D03*
X80645000Y-105330000D03*
%TD*%
%TO.P,SW4,1,1*%
%TO.N,Net-(U1-3.3V)*%
X125095000Y-123190000D03*
X137595000Y-123190000D03*
%TO.P,SW4,2,2*%
%TO.N,Net-(R4-Pad1)*%
X125095000Y-128190000D03*
X137595000Y-128190000D03*
%TD*%
%TO.P,SW2,1,1*%
%TO.N,Net-(U1-3.3V)*%
X125095000Y-100330000D03*
X137595000Y-100330000D03*
%TO.P,SW2,2,2*%
%TO.N,Net-(R2-Pad1)*%
X125095000Y-105330000D03*
X137595000Y-105330000D03*
%TD*%
D13*
%TO.P,ILI9341 TFT LCD 3.2,1,VCC*%
%TO.N,Net-(U1-3.3V)*%
X144857500Y-73660000D03*
%TO.P,ILI9341 TFT LCD 3.2,2,GND*%
%TO.N,GND*%
X144857500Y-71120000D03*
%TO.P,ILI9341 TFT LCD 3.2,3,CS*%
%TO.N,Net-(U5-CS)*%
X144857500Y-68580000D03*
%TO.P,ILI9341 TFT LCD 3.2,4,RST*%
%TO.N,Net-(U5-RST)*%
X144857500Y-66040000D03*
%TO.P,ILI9341 TFT LCD 3.2,5,DC*%
%TO.N,Net-(U5-DC)*%
X144857500Y-63500000D03*
%TO.P,ILI9341 TFT LCD 3.2,6,MOSI*%
%TO.N,Net-(U4-MOSI)*%
X144857500Y-60960000D03*
%TO.P,ILI9341 TFT LCD 3.2,7,SCK*%
%TO.N,Net-(U4-CLK)*%
X144857500Y-58420000D03*
%TO.P,ILI9341 TFT LCD 3.2,8,LED*%
%TO.N,Net-(U5-LED)*%
X144857500Y-55880000D03*
%TO.P,ILI9341 TFT LCD 3.2,9,MISO*%
%TO.N,Net-(U4-MISO)*%
X144857500Y-53340000D03*
%TO.P,ILI9341 TFT LCD 3.2,10,T_CLK*%
%TO.N,unconnected-(U5-T_CLK-Pad10)*%
X144857500Y-50800000D03*
%TO.P,ILI9341 TFT LCD 3.2,11,T_CS*%
%TO.N,unconnected-(U5-T_CS-Pad11)*%
X144857500Y-48260000D03*
%TO.P,ILI9341 TFT LCD 3.2,12,T_DIN*%
%TO.N,unconnected-(U5-T_DIN-Pad12)*%
X144857500Y-45720000D03*
%TO.P,ILI9341 TFT LCD 3.2,13,T_DO*%
%TO.N,unconnected-(U5-T_DO-Pad13)*%
X144857500Y-43180000D03*
%TO.P,ILI9341 TFT LCD 3.2,14,T_IRQ*%
%TO.N,unconnected-(U5-T_IRQ-Pad14)*%
X144857500Y-40640000D03*
%TD*%
D14*
%TO.P,SW_1P2T1,1,VCC*%
%TO.N,Net-(SW_1P2T1-VCC)*%
X102870000Y-102870000D03*
%TO.P,SW_1P2T1,2,Out_1*%
%TO.N,VCC*%
X102870000Y-97790000D03*
%TO.P,SW_1P2T1,3,Out_2*%
%TO.N,unconnected-(SW_1P2T1-Out_2-Pad3)*%
X102870000Y-107950000D03*
%TD*%
D11*
%TO.P,R4,1*%
%TO.N,Net-(R4-Pad1)*%
X133985000Y-116205000D03*
D12*
%TO.P,R4,2*%
%TO.N,Net-(U2--)*%
X128905000Y-116205000D03*
%TD*%
D11*
%TO.P,R3,1*%
%TO.N,Net-(R3-Pad1)*%
X71855000Y-116205000D03*
D12*
%TO.P,R3,2*%
%TO.N,GND*%
X76935000Y-116205000D03*
%TD*%
D15*
%TO.P,NodeMCU32,3V3,3.3V*%
%TO.N,Net-(U1-3.3V)*%
X115316000Y-94996000D03*
%TO.P,NodeMCU32,EN,EN*%
%TO.N,unconnected-(U1-PadEN)*%
X115316000Y-97536000D03*
%TO.P,NodeMCU32,GND@1,GND@1*%
%TO.N,Net-(U2--)*%
X115316000Y-128016000D03*
%TO.P,NodeMCU32,GND@2,GND@2*%
%TO.N,GND*%
X89916000Y-94996000D03*
%TO.P,NodeMCU32,GND@3,GND@3*%
%TO.N,unconnected-(U1-PadGND@3)*%
X89916000Y-110236000D03*
%TO.P,NodeMCU32,GPIO0,GPIO0*%
%TO.N,Net-(U5-RST)*%
X89916000Y-128016000D03*
%TO.P,NodeMCU32,GPIO2,GPIO2*%
%TO.N,unconnected-(U1-PadGPIO2)*%
X89916000Y-130556000D03*
%TO.P,NodeMCU32,GPIO4,GPIO4*%
%TO.N,Net-(U5-DC)*%
X89916000Y-125476000D03*
%TO.P,NodeMCU32,GPIO5,GPIO5*%
%TO.N,Net-(U5-CS)*%
X89916000Y-117856000D03*
%TO.P,NodeMCU32,GPIO6,GPIO6*%
%TO.N,unconnected-(U1-PadGPIO6)*%
X89916000Y-140716000D03*
%TO.P,NodeMCU32,GPIO7,GPIO7*%
%TO.N,unconnected-(U1-PadGPIO7)*%
X89916000Y-138176000D03*
%TO.P,NodeMCU32,GPIO8,GPIO8*%
%TO.N,unconnected-(U1-PadGPIO8)*%
X89916000Y-135636000D03*
%TO.P,NodeMCU32,GPIO9,GPIO9*%
%TO.N,unconnected-(U1-PadGPIO9)*%
X115316000Y-133096000D03*
%TO.P,NodeMCU32,GPIO10,GPIO10*%
%TO.N,unconnected-(U1-PadGPIO10)*%
X115316000Y-135636000D03*
%TO.P,NodeMCU32,GPIO11,GPIO11*%
%TO.N,unconnected-(U1-PadGPIO11)*%
X115316000Y-138176000D03*
%TO.P,NodeMCU32,GPIO12,GPIO12*%
%TO.N,unconnected-(U1-PadGPIO12)*%
X115316000Y-125476000D03*
%TO.P,NodeMCU32,GPIO13,GPIO13*%
%TO.N,unconnected-(U1-PadGPIO13)*%
X115316000Y-130556000D03*
%TO.P,NodeMCU32,GPIO14,GPIO14*%
%TO.N,unconnected-(U1-PadGPIO14)*%
X115316000Y-122936000D03*
%TO.P,NodeMCU32,GPIO15,GPIO15*%
%TO.N,Net-(U4-CS)*%
X89916000Y-133096000D03*
%TO.P,NodeMCU32,GPIO16,GPIO16*%
%TO.N,unconnected-(U1-PadGPIO16)*%
X89916000Y-122936000D03*
%TO.P,NodeMCU32,GPIO17,GPIO17*%
%TO.N,unconnected-(U1-PadGPIO17)*%
X89916000Y-120396000D03*
%TO.P,NodeMCU32,GPIO18,GPIO18*%
%TO.N,Net-(U4-CLK)*%
X89916000Y-115316000D03*
%TO.P,NodeMCU32,GPIO19,GPIO19*%
%TO.N,Net-(U4-MISO)*%
X89916000Y-112776000D03*
%TO.P,NodeMCU32,GPIO21,GPIO21*%
%TO.N,unconnected-(U1-PadGPIO21)*%
X89916000Y-107696000D03*
%TO.P,NodeMCU32,GPIO22,GPIO22*%
%TO.N,Net-(U5-LED)*%
X89916000Y-100076000D03*
%TO.P,NodeMCU32,GPIO23,GPIO23*%
%TO.N,Net-(U4-MOSI)*%
X89916000Y-97536000D03*
%TO.P,NodeMCU32,GPIO25,GPIO25*%
%TO.N,unconnected-(U1-PadGPIO25)*%
X115316000Y-115316000D03*
%TO.P,NodeMCU32,GPIO26,GPIO26*%
%TO.N,unconnected-(U1-PadGPIO26)*%
X115316000Y-117856000D03*
%TO.P,NodeMCU32,GPIO27,GPIO27*%
%TO.N,unconnected-(U1-PadGPIO27)*%
X115316000Y-120396000D03*
%TO.P,NodeMCU32,GPIO32,GPIO32*%
%TO.N,unconnected-(U1-PadGPIO32)*%
X115316000Y-110236000D03*
%TO.P,NodeMCU32,GPIO33,GPIO33*%
%TO.N,unconnected-(U1-PadGPIO33)*%
X115316000Y-112776000D03*
%TO.P,NodeMCU32,GPIO34,GPIO34*%
%TO.N,Net-(R3-Pad1)*%
X115316000Y-105156000D03*
%TO.P,NodeMCU32,GPIO35,GPIO35*%
%TO.N,Net-(R4-Pad1)*%
X115316000Y-107696000D03*
%TO.P,NodeMCU32,GPIO36,GPIO36*%
%TO.N,Net-(R1-Pad1)*%
X115316000Y-100076000D03*
%TO.P,NodeMCU32,GPIO39,GPIO39*%
%TO.N,Net-(R2-Pad1)*%
X115316000Y-102616000D03*
%TO.P,NodeMCU32,RX0,RX0*%
%TO.N,unconnected-(U1-PadRX0)*%
X89916000Y-105156000D03*
%TO.P,NodeMCU32,TX0,TX0*%
%TO.N,unconnected-(U1-PadTX0)*%
X89916000Y-102616000D03*
%TO.P,NodeMCU32,VIN,VIN*%
%TO.N,VCC*%
X115316000Y-140716000D03*
%TD*%
D16*
%TO.P,Battery Box,1,+*%
%TO.N,Net-(SW_1P2T1-VCC)*%
X78515000Y-63505000D03*
%TO.P,Battery Box,2,-*%
%TO.N,Net-(U2--)*%
X78515000Y-50805000D03*
D17*
%TO.P,Battery Box,3,3*%
%TO.N,unconnected-(U2-Pad3)*%
X102235000Y-63505000D03*
%TO.P,Battery Box,4,4*%
%TO.N,unconnected-(U2-Pad4)*%
X102235000Y-40005000D03*
%TD*%
D13*
%TO.P,MicroSD,1,3v3*%
%TO.N,Net-(U1-3.3V)*%
X120650000Y-95250000D03*
%TO.P,MicroSD,2,CS*%
%TO.N,Net-(U4-CS)*%
X120650000Y-92710000D03*
%TO.P,MicroSD,3,MOSI*%
%TO.N,Net-(U4-MOSI)*%
X120650000Y-90170000D03*
%TO.P,MicroSD,4,CLK*%
%TO.N,Net-(U4-CLK)*%
X120650000Y-87630000D03*
%TO.P,MicroSD,5,MISO*%
%TO.N,Net-(U4-MISO)*%
X120650000Y-85090000D03*
%TO.P,MicroSD,6,GND*%
%TO.N,GND*%
X120650000Y-82550000D03*
%TD*%
D18*
%TO.N,Net-(R3-Pad1)*%
X118110000Y-111760000D03*
%TO.N,Net-(R1-Pad1)*%
X120015000Y-124460000D03*
%TO.N,Net-(U1-3.3V)*%
X129540000Y-128270000D03*
%TO.N,GND*%
X97790000Y-83820000D03*
%TO.N,Net-(U5-CS)*%
X97880000Y-100965000D03*
X97790000Y-104140000D03*
X97790000Y-89535000D03*
X117475000Y-68580000D03*
%TO.N,Net-(U4-CLK)*%
X113030000Y-87630000D03*
%TO.N,Net-(U4-MOSI)*%
X133350000Y-62230000D03*
X106680000Y-88900000D03*
%TO.N,Net-(U4-MISO)*%
X113030000Y-85090000D03*
%TO.N,Net-(U5-RST)*%
X104140000Y-92165000D03*
X104140000Y-85090000D03*
X123190000Y-66040000D03*
%TO.N,Net-(U5-DC)*%
X110490000Y-109220000D03*
X105410000Y-114300000D03*
X105410000Y-87630000D03*
X129540000Y-63500000D03*
%TO.N,Net-(U5-LED)*%
X96520000Y-81280000D03*
%TD*%
D19*
%TO.N,Net-(R3-Pad1)*%
X118110000Y-111760000D02*
X118110000Y-142240000D01*
X118110000Y-142240000D02*
X116205000Y-144145000D01*
X116205000Y-144145000D02*
X82550000Y-144145000D01*
X82550000Y-144145000D02*
X80645000Y-142240000D01*
X80645000Y-142240000D02*
X80645000Y-128190000D01*
%TO.N,Net-(R1-Pad1)*%
X80645000Y-105330000D02*
X80645000Y-117475000D01*
X80645000Y-117475000D02*
X78105000Y-120015000D01*
X78105000Y-120015000D02*
X78105000Y-143510000D01*
X78105000Y-143510000D02*
X80010000Y-145415000D01*
X80010000Y-145415000D02*
X116205000Y-145415000D01*
X116205000Y-145415000D02*
X120015000Y-141605000D01*
X120015000Y-141605000D02*
X120015000Y-124460000D01*
%TO.N,Net-(U1-3.3V)*%
X85090000Y-101600000D02*
X85090000Y-118745000D01*
X80645000Y-100330000D02*
X83820000Y-100330000D01*
X129540000Y-128270000D02*
X129540000Y-127635000D01*
X85090000Y-118745000D02*
X80645000Y-123190000D01*
X83820000Y-100330000D02*
X85090000Y-101600000D01*
X80010000Y-100330000D02*
X80645000Y-100330000D01*
X129540000Y-127635000D02*
X125095000Y-123190000D01*
%TO.N,GND*%
X97790000Y-83820000D02*
X89916000Y-91694000D01*
X89916000Y-91694000D02*
X89916000Y-94996000D01*
%TO.N,Net-(U5-CS)*%
X97790000Y-89535000D02*
X97790000Y-88265000D01*
X97790000Y-101055000D02*
X97790000Y-104140000D01*
X97880000Y-100965000D02*
X97790000Y-101055000D01*
X97790000Y-88265000D02*
X117475000Y-68580000D01*
%TO.N,Net-(U4-CLK)*%
X142240000Y-58420000D02*
X144857500Y-58420000D01*
X89916000Y-115316000D02*
X95504000Y-115316000D01*
X102870000Y-91440000D02*
X109220000Y-91440000D01*
X95504000Y-115316000D02*
X100330000Y-110490000D01*
X100330000Y-110490000D02*
X100330000Y-93980000D01*
X100330000Y-93980000D02*
X102870000Y-91440000D01*
X109220000Y-91440000D02*
X142240000Y-58420000D01*
%TO.N,Net-(U4-MOSI)*%
X97155000Y-97155000D02*
X97155000Y-92075000D01*
X106680000Y-88900000D02*
X133350000Y-62230000D01*
X96774000Y-97536000D02*
X97155000Y-97155000D01*
X97155000Y-92075000D02*
X100330000Y-88900000D01*
X89916000Y-97536000D02*
X96774000Y-97536000D01*
X100330000Y-88900000D02*
X106680000Y-88900000D01*
%TO.N,Net-(U4-MISO)*%
X89916000Y-112776000D02*
X95504000Y-112776000D01*
X99060000Y-92710000D02*
X101600000Y-90170000D01*
X101600000Y-90170000D02*
X107950000Y-90170000D01*
X99060000Y-109220000D02*
X99060000Y-92710000D01*
X124460000Y-73660000D02*
X124537500Y-73660000D01*
X95504000Y-112776000D02*
X99060000Y-109220000D01*
X107950000Y-90170000D02*
X124460000Y-73660000D01*
X124537500Y-73660000D02*
X144857500Y-53340000D01*
%TO.N,Net-(U4-CS)*%
X108204000Y-133096000D02*
X89916000Y-133096000D01*
X113030000Y-92710000D02*
X111760000Y-93980000D01*
X111760000Y-129540000D02*
X108204000Y-133096000D01*
X111760000Y-93980000D02*
X111760000Y-129540000D01*
X120650000Y-92710000D02*
X113030000Y-92710000D01*
%TO.N,Net-(U5-RST)*%
X123190000Y-66040000D02*
X104140000Y-85090000D01*
X109220000Y-97155000D02*
X109220000Y-108712000D01*
X104140000Y-92165000D02*
X104230000Y-92165000D01*
X109220000Y-108712000D02*
X89916000Y-128016000D01*
X104230000Y-92165000D02*
X109220000Y-97155000D01*
%TO.N,Net-(U5-DC)*%
X111760000Y-81280000D02*
X129540000Y-63500000D01*
X105410000Y-87630000D02*
X111760000Y-81280000D01*
X105410000Y-114300000D02*
X110490000Y-109220000D01*
%TO.N,Net-(U5-LED)*%
X96520000Y-81280000D02*
X86360000Y-91440000D01*
X87376000Y-100076000D02*
X89916000Y-100076000D01*
X86360000Y-99060000D02*
X87376000Y-100076000D01*
X86360000Y-91440000D02*
X86360000Y-99060000D01*
%TO.N,Net-(R2-Pad1)*%
X115570000Y-102870000D02*
X115316000Y-102616000D01*
X124380000Y-105330000D02*
X121920000Y-102870000D01*
X125095000Y-105330000D02*
X124380000Y-105330000D01*
X121920000Y-102870000D02*
X115570000Y-102870000D01*
%TO.N,Net-(R4-Pad1)*%
X119380000Y-110490000D02*
X116586000Y-107696000D01*
X125095000Y-128190000D02*
X119380000Y-122475000D01*
X116586000Y-107696000D02*
X115316000Y-107696000D01*
X119380000Y-122475000D02*
X119380000Y-110490000D01*
%TD*%
M02*
